<?xml version="1.0" encoding="UTF-8"?>
<svg id="Layer_1" xmlns="http://www.w3.org/2000/svg" version="1.1" viewBox="0 0 4500 1500">
  <defs>
    <style>
      .st0 {
        fill: none;
        stroke: #d94b0a;
        stroke-linecap: round;
        stroke-linejoin: round;
        stroke-width: 70px;
      }

      .st1 {
        fill: #d94b0a;
      }

      .st2 {
        fill: #1c1c1e;
      }
    </style>
  </defs>
  <g>
    <path class="st1" d="M695.15,877.33c-10.15,0-20.02-1.93-29.34-5.73-20.77-7.38-39.33-23.39-52.29-45.11-13.01-21.81-19.23-47.65-17.53-72.82-.04-23.39,6.42-46.34,18.72-66.4,11.99-19.56,28.84-34.76,47.47-42.83,10.01-4.72,20.59-7.11,31.46-7.11,26.26,0,52.8,14.05,72.83,38.55,24.28,29.71,34.43,69.04,27.19,105.29-3.33,26.34-15.44,50.72-34.14,68.66-18.49,17.74-41.35,27.51-64.37,27.51Z"/>
    <path class="st1" d="M693.65,647.33c53.11,0,103.55,66.21,90.14,132.23-6.28,51.1-47.34,87.78-88.64,87.78-8.69,0-17.39-1.62-25.77-5.08-38.09-13.4-66.82-59.54-63.38-108.26-.22-44.81,26.1-85.72,60.31-100.45,8.98-4.26,18.2-6.22,27.34-6.22M693.65,627.33v20-20c-12.32,0-24.28,2.69-35.59,8-20.45,8.9-38.86,25.47-51.88,46.72-13.2,21.54-20.18,46.18-20.19,71.3-3.63,56.04,29.02,110.69,76.26,127.6,10.47,4.24,21.53,6.39,32.9,6.39,25.62,0,50.94-10.76,71.3-30.3,20.26-19.45,33.42-45.79,37.09-74.27,7.68-39.05-3.25-81.32-29.33-113.22-21.93-26.83-51.29-42.22-80.56-42.22h0Z"/>
  </g>
  <g>
    <path class="st1" d="M1102.51,874.14c-11.41,0-22.47-2.58-32.88-7.66-24.09-8.63-44.51-30.74-56.08-60.78-11.11-28.83-13.08-61.86-5.42-90.67,8.48-41,37.62-73.93,74.34-84,7.29-2.37,14.84-3.57,22.43-3.57,22.8,0,45.48,10.74,63.86,30.23,23.85,25.3,36.85,61.78,34.81,97.64-.28,30.93-11.22,60.53-30.83,83.37-19.34,22.53-44.94,35.45-70.24,35.45Z"/>
    <path class="st1" d="M1104.91,637.46c48,0,92.34,55.38,88.67,117.54-.42,60.3-45,109.14-91.07,109.14-9.73,0-19.53-2.18-28.99-6.89-45.94-15.99-70.55-84.43-55.65-139.92,8.11-39.69,36.3-68.26,67.48-76.71,6.51-2.14,13.07-3.16,19.56-3.16M1104.92,617.46h0c-8.57,0-17.08,1.34-25.3,3.99-40.13,11.1-71.92,46.83-81.21,91.28-8.11,30.74-5.99,65.89,5.82,96.56,6.03,15.64,14.18,29.27,24.23,40.5,10.87,12.14,23.41,20.85,37.29,25.92,11.65,5.59,24.01,8.43,36.77,8.43,28.22,0,56.58-14.19,77.83-38.93,21.09-24.57,32.89-56.35,33.24-89.55,1.09-19.69-1.84-39.12-8.7-57.77-6.51-17.69-16.48-33.96-28.83-47.06-20.29-21.52-45.55-33.37-71.13-33.37h0Z"/>
  </g>
  <g>
    <path class="st1" d="M899.33,1278.09c-78.47,0-155.78-12.17-229.76-36.18-.11-.04-.22-.07-.33-.11-93.89-34.14-169.42-79.63-224.51-135.22-48.39-43.16-86.11-101.39-112.17-173.16-.44-.11-.89-.22-1.33-.33-20.95-5.11-42.61-10.39-59.92-25.7-24.47-18.98-37.71-51.75-36.35-89.98.28-16.14.17-32.63.06-48.58-.14-20.36-.29-41.42.38-62.2,0-.31.03-.62.07-.93,2.79-22.17,14.63-42.54,34.24-58.93,17.9-14.96,38.46-23.8,54.23-28.86,10.01-49.73,30.61-97.39,59.77-138.18,32.14-44.95,74.04-80.31,121.16-102.25,37.53-17.34,75.66-26.5,110.3-26.5,15.29,0,30.07,1.76,44.04,5.25,5.94-5.99,11.28-12.66,16.87-19.66,7.57-9.47,15.4-19.27,25.17-27.67,7.63-6.61,17.75-10.26,28.46-10.26,14.99,0,29.14,7.23,37,18.87,12.91,17.51,21.1,37.17,29.01,56.18,4.31,10.34,8.47,20.34,13.27,29.87,7.17-26.14,13.77-52.58,20.21-78.35,7.86-31.48,16-64.04,25.11-95.87,5.6-20.94,21.6-45.35,48.31-45.35,1.03,0,2.07.04,3.11.11,14.27.78,33.42,9.18,43.91,44.65,12.59,41.76,22.88,84.72,32.83,126.27,2.72,11.34,5.52,23.06,8.33,34.57,1.34,5.46,3,10.93,4.96,16.36,4.96-11.15,9.62-22.46,14.19-33.53,3.58-8.68,7.28-17.65,11.08-26.45,11.16-25.71,30.3-41.05,51.21-41.05,2.59,0,5.22.24,7.83.7,21.95,3.45,34.73,19.37,46.02,33.42,4.28,5.32,8.36,10.4,12.73,14.66,5.13-.33,10.32-.75,15.38-1.16,11.43-.92,23.25-1.88,35.08-1.88,9.88,0,18.71.67,27.02,2.04,42.25,7.03,82.39,24.21,119.34,51.06,34.03,24.73,64.06,57.18,86.85,93.85,24.57,36,36.98,76.39,48.05,118.17,27.15,9.15,58.49,23.72,73.88,53.6,15.75,25.64,14.91,53.92,14.1,81.27-.26,8.65-.5,16.83-.23,24.88,0,.21,0,.42,0,.63-.22,7.52,0,15.11.24,23.14.73,24.61,1.48,50.05-11.11,73.86-15.34,34.84-51.74,52.28-82.97,57.52-19.07,56.76-51.56,109.93-96.63,158.11-42.25,45.17-95.7,85.4-154.58,116.36-.04.02-.08.04-.12.06-93.83,47.66-202.33,72.86-313.8,72.86ZM802.79,1205.98c31.81,4.06,63.94,6.12,95.49,6.12,118.43,0,227.72-28.58,316.07-82.65,40.13-24.32,75.18-52.65,104.24-84.23,31.5-34.24,55.13-71.52,70.24-110.82.07-.17.14-.35.21-.51,23.18-51.5,22.4-109.52,21.63-165.64-.11-7.9-.22-16.07-.26-24.06-.24-11.61-.12-23.4,0-34.81.34-33.59.7-68.33-8.41-100.76-.04-.13-.07-.26-.1-.39-10.26-43.04-34.82-86.03-71.04-124.32-.03-.04-.07-.07-.1-.11-34.14-37.22-77.93-61.36-123.32-67.98-.18-.03-.36-.06-.53-.09-3.27-.66-6.68-.98-10.41-.98-8.38,0-16.92,1.62-25.97,3.33-9.51,1.8-19.33,3.66-29.5,3.66-6.94,0-13.27-.86-19.35-2.63-.18-.05-.35-.11-.52-.17-21.16-7.43-34.34-24.54-45.85-40-6.23,12.59-12.15,25.41-17.94,37.92-5.7,12.33-11.59,25.08-17.73,37.52-10.73,22.01-28.21,35.18-46.75,35.18-2.57,0-5.17-.25-7.75-.75-.05,0-.09-.02-.14-.03-26.81-5.56-41.59-31.11-46.51-53.23-5.34-20.82-10.41-42.04-15.32-62.57-6.5-27.19-13.15-55-20.58-82.56-1.87,6.97-3.86,13.85-5.83,20.66-1.63,5.62-3.31,11.43-4.87,17.12-9.73,40.21-18.82,76.69-27.79,111.51-6.52,25.19-19.72,41.03-38.18,45.82-3.99,1.12-8.1,1.69-12.22,1.69-23.57,0-42.62-17.75-51.09-35.38-6.78-13.36-12.9-27.15-18.82-40.48-5.32-11.98-10.77-24.26-16.7-36.2-2.42,2.88-4.83,5.89-7.29,8.98-12.05,15.12-24.5,30.75-45.46,37.43-5.43,1.84-11.01,2.74-17.07,2.74-10.11,0-19.63-2.52-28.83-4.96-8.41-2.23-16.35-4.33-24.02-4.33-2.32,0-4.47.19-6.57.58-.28.05-.56.09-.84.12-59.79,5.87-108.23,43.62-138.35,74.27-49.52,51.87-76.85,121.44-74.98,190.88,0,.04,0,.07,0,.11.39,24.15.33,48.65.28,72.34-.07,29.28-.14,59.55.64,89.23,5.06,78.79,42.89,157.43,103.81,215.78.07.07.15.14.22.22,39.17,39.93,87.57,73.09,143.85,98.57,51.94,23.51,109.24,39.95,170.32,48.87Z"/>
    <path class="st1" d="M902.63,194c.81,0,1.64.03,2.47.09,20.36,1.05,30.07,20.99,34.96,37.51,15.96,52.92,27.96,106.78,41.04,160.38,3.26,13.26,8.14,26.09,14.33,38.29,13.03-26.2,23.23-53.55,34.8-80.32,7.3-16.83,21.97-35.02,42.03-35.02,2,0,4.06.18,6.17.56,27.2,4.21,38.05,32.4,56.78,48.45,17.99-.97,36.05-3.27,54.08-3.27,8.47,0,16.94.51,25.39,1.9,84.41,14.04,156.01,70.54,199.44,140.5,24.86,36.35,37.18,78.69,48.15,120.51,28.77,9.21,59.33,22.93,73.45,50.71,19.11,30.77,11.45,67.65,12.59,101.57-.92,31.04,5.54,64.12-9.88,92.95-13.63,31.35-48.04,48.92-81.53,52.86-38.27,120.35-135.93,215.56-248.29,274.63-95.16,48.34-202.15,71.78-309.27,71.78-76.92,0-153.91-12.08-226.67-35.69-81.59-29.67-160.24-71.64-221.04-133.08-52.76-46.97-88.48-109.15-111.44-174.32-21.88-5.47-45.27-9.94-62.48-25.3-25.19-19.36-33.82-52.08-32.73-82.01.65-36.87-.76-73.85.43-110.73,5.43-43.08,47.44-69.85,87.23-81.22,18.24-99.42,80.88-194.68,176.48-239.18,32.66-15.09,69.54-25.56,106.08-25.56,15.82,0,31.57,1.96,46.89,6.36,16.99-15.46,28.28-35.87,45.71-50.87,6.13-5.31,14.02-7.85,21.94-7.85,11.22,0,22.48,5.1,28.82,14.63,23.78,32.14,30.94,72.75,53.74,105.52,18.94-65.17,33-131.56,51.68-196.78,4.7-17.67,17.81-38.02,38.67-38.02M813.69,477.23c-18.2,0-34.63-14.12-42.12-29.8-14.93-29.4-26.38-60.39-42.12-89.42-19.27,18.04-31.21,45.5-58.25,54.07-4.68,1.6-9.33,2.24-13.95,2.24-17.67,0-34.97-9.29-52.85-9.29-2.78,0-5.58.22-8.39.74-56.78,5.58-106.12,38.14-144.56,77.27-50.7,53.08-79.74,125.67-77.79,198.1.87,53.97-.49,107.94.92,161.86,5.32,83.74,45.54,163.8,106.88,222.56,83.71,85.32,201.28,133.03,319.95,150.34,31.95,4.09,64.39,6.22,96.86,6.22,112.6,0,225.69-25.61,321.29-84.12,78.11-47.34,146.02-115.3,178.59-199.99,27.47-61.02,22.58-128.98,22.26-193.94-.98-46.03,3.85-93.11-8.79-138.13-11.56-48.5-39.03-92.42-73.5-128.87-33.38-36.4-79.09-63.81-129.25-71.12-4.14-.83-8.27-1.18-12.39-1.18-18.6,0-36.98,6.98-55.46,6.98-5.51,0-11.02-.62-16.56-2.23-23.67-8.31-36.21-31.09-50.86-49.29-15.42,29.4-28.28,60.02-42.94,89.74-7.04,14.46-20.4,29.6-37.79,29.6-1.91,0-3.86-.18-5.86-.57-21.82-4.52-34.47-26.04-38.81-45.76-15.8-61.6-28.61-123.98-47.28-184.84-3.04,26.46-11.73,51.76-18.73,77.32-9.01,37.24-18.24,74.43-27.79,111.52-4.18,16.15-13.08,34.03-31.1,38.66-3.23.92-6.45,1.35-9.61,1.35M902.63,174h0c-15.31,0-29.27,6.61-40.36,19.11-7.93,8.94-14.18,20.86-17.59,33.58-9.15,31.96-17.29,64.58-25.17,96.11-4.2,16.8-8.46,33.89-12.91,50.98-.54-1.3-1.09-2.61-1.64-3.93-8.12-19.5-16.52-39.66-30.07-58.1-9.85-14.48-26.69-23.11-45.17-23.11-13.11,0-25.54,4.52-35.02,12.72-10.46,9.01-18.58,19.16-26.42,28.98-4.17,5.22-8.19,10.25-12.38,14.87-13.04-2.8-26.68-4.21-40.71-4.21-36.08,0-75.66,9.48-114.47,27.41-.02,0-.03.02-.05.02-24.94,11.61-48.45,26.78-69.89,45.09-20.45,17.47-39.02,37.79-55.19,60.41-28.87,40.38-49.57,87.3-60.25,136.35-15.79,5.58-34.98,14.59-52.03,28.83-21.58,18.03-34.64,40.63-37.75,65.35-.08.61-.13,1.23-.15,1.85-.68,20.98-.53,42.13-.39,62.59.11,15.86.23,32.26-.05,48.25-1.45,41.32,13.1,76.96,39.96,97.95,17.97,15.77,40.06,21.84,60.1,26.77,26.51,70.92,64.44,128.73,112.82,171.96,29.85,30.08,65.65,57.4,106.41,81.21,35.95,21,76.86,39.89,121.57,56.15.22.08.44.16.66.23,74.98,24.33,153.32,36.67,232.85,36.67,113.02,0,223.1-25.57,318.33-73.94.08-.04.17-.09.25-.13,29.41-15.46,57.51-33.16,83.49-52.59,26.97-20.17,51.78-42.3,73.74-65.78,44.58-47.66,77.13-100.14,96.88-156.17,15.68-3.25,30.52-8.98,43.47-16.85,18.73-11.38,32.87-26.95,40.95-45.08,13.65-26.06,12.83-53.92,12.1-78.52-.23-7.88-.45-15.33-.24-22.55.01-.42.01-.84,0-1.27-.26-7.74-.02-15.76.23-24.25.81-27.37,1.73-58.37-15.38-86.48-8.09-15.54-20.92-28.83-38.13-39.49-10.17-6.3-21.84-11.76-36.18-16.89-10.64-39.5-23.7-80.31-47.96-115.92-23.45-37.68-54.35-71.03-89.35-96.48-38.21-27.77-79.78-45.55-123.56-52.83-8.87-1.47-18.24-2.18-28.67-2.18-12.23,0-24.26.97-35.89,1.91-3.62.29-7.14.58-10.61.83-2.93-3.2-5.86-6.85-8.89-10.62-11.79-14.68-26.46-32.94-52.17-37.02-3.15-.56-6.34-.84-9.48-.84-14.25,0-27.91,5.74-39.49,16.61-10.71,10.05-17.27,22.1-20.89,30.45-3.85,8.91-7.56,17.92-11.16,26.64-.98,2.38-1.97,4.78-2.96,7.18-1.87-7.75-3.73-15.52-5.55-23.11-9.98-41.66-20.29-84.75-32.98-126.81-3.73-12.6-8.8-23.07-15.06-31.12-9.85-12.67-22.92-19.8-37.8-20.64-1.25-.09-2.5-.13-3.74-.13h0ZM901.56,330.7c.19-.68.37-1.36.56-2.04,3.89,15.63,7.62,31.24,11.3,46.64,4.9,20.51,9.97,41.72,15.32,62.57,5.63,25.14,22.8,54.18,54.21,60.69.09.02.19.04.28.06,3.2.61,6.44.93,9.63.93,12.8,0,25.23-4.95,35.94-14.33,9.92-8.68,16.23-19.16,19.79-26.45,6.19-12.55,12.1-25.35,17.83-37.72,3.55-7.67,7.15-15.45,10.83-23.22,10.28,12.47,22.71,24.27,40.57,30.54.34.12.69.23,1.04.33,7,2.04,14.24,3.02,22.14,3.02,11.1,0,21.4-1.95,31.36-3.83,8.57-1.62,16.66-3.15,24.1-3.15,3.06,0,5.82.26,8.44.78.35.07.71.13,1.07.19,21.85,3.19,43.38,10.68,63.99,22.29,19.73,11.11,37.7,25.43,53.41,42.56.07.07.14.15.21.22,35.01,37.02,58.72,78.44,68.58,119.77.06.26.13.52.2.77,8.72,31.05,8.39,63.54,8.04,97.95-.12,11.45-.24,23.3,0,35.03.04,8.02.15,16.18.26,24.08.75,55.02,1.52,111.92-20.75,161.4-.15.34-.3.68-.43,1.03-14.66,38.12-37.63,74.33-68.27,107.64-28.41,30.89-62.74,58.62-102.02,82.43-.02.02-.05.03-.07.04-86.78,53.11-194.27,81.18-310.85,81.18-31.11,0-62.78-2.03-94.15-6.03-60.12-8.78-116.48-24.95-167.54-48.07-55.15-24.96-102.53-57.42-140.83-96.46-.15-.15-.29-.29-.44-.44-29.22-27.98-52.87-60.35-70.3-96.21-17.71-36.43-27.95-74.38-30.44-112.81-.76-29.48-.7-59.61-.63-88.76.05-23.74.11-48.28-.28-72.52,0-.07,0-.14,0-.22-.88-32.72,5.26-66.75,17.76-98.43,12.42-31.47,31.23-60.93,54.4-85.22,19.48-19.82,39.97-35.88,60.89-47.73,23.46-13.29,47.43-21.21,71.26-23.55.56-.06,1.12-.13,1.68-.24,1.5-.28,3.06-.41,4.75-.41,6.36,0,13.69,1.94,21.46,4,9.36,2.48,19.98,5.29,31.39,5.29,7.03,0,13.82-1.09,20.19-3.23,22.08-7.07,35.73-22.7,47.45-37.31,3.27,7.06,6.47,14.27,9.75,21.65,5.96,13.42,12.12,27.29,19,40.85,9.85,20.42,32.19,40.95,60.06,40.95,5,0,9.99-.69,14.84-2.04,21.82-5.72,37.88-24.51,45.24-52.96,8.98-34.87,18.08-71.35,27.8-111.53h0Z"/>
  </g>
  <path class="st0" d="M859.12,1035.1c126.19,21.63,186.57-51.38,186.57-51.38"/>
  <g>
    <path class="st2" d="M1803.73,1145.64l221-660h210l220,660h-175l-148-529h-6l-149,529h-173ZM1928.73,1028.64v-114h421v114h-421Z"/>
    <path class="st2" d="M2492.72,1145.64v-528h140v210h8c4-56,11.83-100.16,23.5-132.5,11.66-32.33,26.33-55.33,44-69,17.66-13.66,37.5-20.5,59.5-20.5,12,0,24.5,1.67,37.5,5,13,3.34,25.83,8.67,38.5,16l-8,180c-14.67-8.66-29-15.16-43-19.5-14-4.33-27.34-6.5-40-6.5-21.34,0-39.34,6-54,18-14.67,12-25.84,29.67-33.5,53-7.67,23.34-11.5,51.67-11.5,85v209h-161Z"/>
    <path class="st2" d="M3026.71,1145.64l-159-528h172l91,394h4l95-394h162l-159,528h-206Z"/>
    <path class="st2" d="M3510.71,579.64c-30.67,0-54.17-6.5-70.5-19.5-16.34-13-24.5-31.83-24.5-56.5s8.16-44.5,24.5-57.5c16.33-13,39.83-19.5,70.5-19.5s55.16,6.67,71.5,20c16.33,13.34,24.5,32.34,24.5,57s-8.17,42.67-24.5,56c-16.34,13.34-40.17,20-71.5,20ZM3430.71,1145.64v-528h162v528h-162Z"/>
    <path class="st2" d="M3895.71,1159.64c-35.34,0-68.17-3.5-98.5-10.5-30.34-7-56.67-18.16-79-33.5-22.34-15.33-39.34-35.83-51-61.5-11.67-25.66-16.5-56.83-14.5-93.5l141-12c1.33,22,6.33,40.17,15,54.5,8.66,14.34,20.66,24.84,36,31.5,15.33,6.67,34,10,56,10,20.66,0,38.5-3.5,53.5-10.5s22.5-18.83,22.5-35.5c0-8.66-2.67-15.83-8-21.5-5.34-5.66-15.17-11-29.5-16-14.34-5-35.17-10.83-62.5-17.5-34-8.66-64.67-17.33-92-26-27.34-8.66-50.67-19-70-31-19.34-12-34-26.83-44-44.5-10-17.66-15-39.5-15-65.5,0-36.66,9.83-67.83,29.5-93.5,19.66-25.66,46.83-45.33,81.5-59,34.66-13.66,74.66-20.5,120-20.5,40.66,0,78.66,6.34,114,19,35.33,12.67,63.16,33.34,83.5,62,20.33,28.67,27.83,66.67,22.5,114l-138,13c2-19.33-.67-35.83-8-49.5-7.34-13.66-18-24-32-31s-31-10.5-51-10.5c-22.67,0-40.17,4.17-52.5,12.5-12.34,8.34-18.5,18.84-18.5,31.5,0,10,3.83,18.5,11.5,25.5,7.66,7,19.66,13,36,18,16.33,5,37.5,10.5,63.5,16.5,22.66,4.67,46.33,10.67,71,18,24.66,7.34,47.66,17.17,69,29.5,21.33,12.34,38.66,28.5,52,48.5,13.33,20,20,45.34,20,76,0,32.67-9,61.34-27,86-18,24.67-44.34,43.67-79,57-34.67,13.33-77.34,20-128,20Z"/>
  </g>
</svg>
