<?xml version="1.0" encoding="UTF-8"?>
<svg id="Layer_1" xmlns="http://www.w3.org/2000/svg" version="1.1" viewBox="0 0 1500 1500">
  <!-- Generator: Adobe Illustrator 29.0.1, SVG Export Plug-In . SVG Version: 2.1.0 Build 192)  -->
  <defs>
    <style>
      .st0 {
        fill: none;
        stroke: #d94b0a;
        stroke-linecap: round;
        stroke-linejoin: round;
        stroke-width: 50px;
      }

      .st1 {
        fill: #d94b0a;
      }
    </style>
  </defs>
  <path class="st1" d="M525.87,675.73c60.11-28.5,130.85,47.77,115.41,123.78-7.47,60.76-64.99,100.77-112.39,81.24-37.42-13.16-65.64-58.49-62.27-106.35-.22-44.02,25.64-84.21,59.25-98.68Z"/>
  <path class="st1" d="M937.52,663.03c53.73-17.69,110.41,43.05,106.32,112.36-.5,71.75-64.64,126.98-117.94,100.45-45.12-15.7-69.3-82.94-54.67-137.45,7.96-38.99,35.65-67.06,66.29-75.36Z"/>
  <path class="st1" d="M720.03,261.64c4.8-18.03,18.5-38.91,40.42-37.26,20,1.03,29.54,20.62,34.34,36.84,15.68,51.98,27.46,104.9,40.31,157.55,3.2,13.02,8,25.63,14.08,37.62,12.8-25.73,22.82-52.6,34.18-78.9,7.89-18.19,24.53-37.98,47.35-33.85,26.72,4.13,37.38,31.83,55.78,47.59,25.97-1.4,52.1-5.63,78.07-1.34,82.92,13.8,153.26,69.29,195.92,138.02,24.42,35.71,36.53,77.3,47.3,118.38,28.26,9.04,58.28,22.53,72.15,49.81,18.77,30.23,11.25,66.45,12.37,99.78-.91,30.49,5.44,62.99-9.71,91.31-13.38,30.8-47.19,48.06-80.09,51.93-37.59,118.23-133.53,211.76-243.91,269.79-160.62,81.59-355.47,90.94-526.48,35.45-80.15-29.14-157.42-70.38-217.14-130.73-51.83-46.14-86.92-107.22-109.48-171.25-21.49-5.37-44.47-9.77-61.38-24.85-24.74-19.02-33.22-51.16-32.16-80.56.64-36.22-.75-72.55.43-108.77,5.33-42.32,46.61-68.62,85.69-79.78,17.92-97.66,79.45-191.24,173.36-234.96,45.97-21.24,100.46-33.17,150.27-18.86,16.69-15.19,27.78-35.24,44.9-49.97,14.56-12.61,39.25-9.3,49.86,6.67,23.36,31.57,30.4,71.46,52.79,103.66,18.61-64.02,32.42-129.23,50.77-193.31ZM756.35,277.71c-2.99,25.99-11.52,50.85-18.4,75.96-8.85,36.58-17.92,73.12-27.3,109.55-4.11,15.86-12.85,33.43-30.56,37.98-21.44,6.1-42.18-9.87-50.82-27.96-14.66-28.89-25.92-59.32-41.38-87.84-18.93,17.72-30.66,44.7-57.22,53.12-24.96,8.53-48.69-10.85-73.86-6.2-55.78,5.48-104.25,37.46-142.01,75.91-49.81,52.14-78.33,123.45-76.42,194.6.85,53.02-.48,106.03.91,159,5.23,82.26,44.74,160.91,105,218.63,82.23,83.81,197.73,130.68,314.3,147.68,140.25,17.93,289.77-2.48,410.76-76.53,76.74-46.51,143.44-113.27,175.44-196.46,26.98-59.94,22.18-126.7,21.86-190.52-.96-45.21,3.79-91.46-8.64-135.69-11.36-47.64-38.34-90.79-72.2-126.6-32.8-35.76-77.69-62.68-126.97-69.86-27.94-5.63-55.19,11.57-82.92,3.51-23.25-8.16-35.57-30.54-49.97-48.42-15.14,28.89-27.78,58.96-42.18,88.15-7.68,15.76-22.98,32.35-42.87,28.52-21.44-4.44-33.86-25.58-38.13-44.96-15.52-60.51-28.1-121.79-46.45-181.58Z"/>
  <path class="st0" d="M715.28,1050.54c123.96,21.25,183.28-50.47,183.28-50.47"/>
</svg>