<?xml version="1.0" encoding="UTF-8"?>
<svg id="Layer_1" xmlns="http://www.w3.org/2000/svg" version="1.1" viewBox="38 38 1428 1428">
  <!-- Generator: Adobe Illustrator 29.0.1, SVG Export Plug-In . SVG Version: 2.1.0 Build 192)  -->
  <defs>
    <style>
      .st0 {
        fill: none;
        stroke: #d94b0a;
        stroke-linecap: round;
        stroke-linejoin: round;
        stroke-width: 100px;
      }

      .st1 {
        fill: #d94b0a;
      }
    </style>
  </defs>
  <g>
    <path class="st1" d="M554.2,859.24c-10.3,0-20.31-1.95-29.78-5.81-43.64-15.54-73.78-66.33-70.31-118.44-.05-47.6,27.27-92.61,66.6-109.66,10.18-4.79,20.95-7.22,32.01-7.22,26.6,0,53.43,14.16,73.61,38.85,24.33,29.77,34.51,69.19,27.28,105.55-3.36,26.45-15.54,50.92-34.33,68.95-18.66,17.91-41.78,27.77-65.09,27.77Z"/>
    <path class="st1" d="M552.73,630.62c52.17,0,101.72,65.04,88.55,129.89-6.17,50.2-46.51,86.23-87.07,86.23-8.54,0-17.08-1.6-25.32-4.99-37.42-13.16-65.64-58.49-62.27-106.35-.22-44.02,25.64-84.21,59.25-98.68,8.82-4.18,17.88-6.11,26.86-6.11M552.73,605.62v25-25h-.01c-12.85,0-25.35,2.8-37.15,8.33-43.56,18.98-73.84,68.42-73.95,120.64-3.63,57.24,29.89,113.11,78.35,130.53,10.89,4.4,22.41,6.63,34.23,6.63,26.55,0,52.74-11.1,73.74-31.25,20.74-19.91,34.22-46.85,38.02-75.96,7.78-39.87-3.38-82.96-29.95-115.47-22.56-27.6-52.92-43.44-83.28-43.44h0Z"/>
  </g>
  <g>
    <path class="st1" d="M954.38,856.1c-11.57,0-22.78-2.6-33.34-7.73-24.34-8.78-44.92-31.04-56.55-61.22-11.1-28.82-13.07-61.83-5.43-90.65,8.55-41.2,37.88-74.29,74.87-84.46,7.42-2.4,15.09-3.62,22.8-3.62,23.15,0,46.12,10.84,64.68,30.54,23.91,25.36,36.95,61.91,34.92,97.84-.29,30.99-11.27,60.65-30.93,83.55-19.51,22.72-45.4,35.75-71.03,35.75Z"/>
    <path class="st1" d="M956.74,620.93c47.16,0,90.71,54.4,87.1,115.46-.41,59.23-44.21,107.22-89.46,107.22-9.56,0-19.18-2.14-28.48-6.77-45.12-15.7-69.3-82.94-54.67-137.45,7.96-38.99,35.65-67.06,66.29-75.36,6.4-2.11,12.84-3.1,19.21-3.1M956.74,595.93h0c-8.94,0-17.81,1.39-26.39,4.15-41.24,11.46-73.89,48.07-83.45,93.56-8.2,31.23-6.05,66.9,5.93,98.02,6.15,15.97,14.5,29.91,24.81,41.43,11.21,12.52,24.16,21.54,38.54,26.83,12.1,5.77,24.94,8.7,38.2,8.7,29.28,0,58.63-14.62,80.51-40.11,21.52-25.06,33.56-57.45,33.94-91.28,1.09-20.03-1.89-39.8-8.88-58.78-6.64-18.05-16.83-34.66-29.45-48.05-20.95-22.22-47.15-34.46-73.77-34.46h0Z"/>
  </g>
  <g>
    <path class="st1" d="M754.78,1291.92c-77.37,0-153.58-12-226.53-35.67-.14-.04-.28-.09-.41-.14-92.57-33.66-167.08-78.54-221.48-133.41-47.53-42.42-84.64-99.51-110.37-169.78-19.88-4.85-42.38-10.35-59.86-25.76-24.68-19.18-38.04-52.14-36.67-90.53.28-15.81.16-31.99.05-47.63-.14-20.03-.29-40.74.38-61.21.01-.39.04-.77.09-1.16,2.83-22.46,14.79-43.07,34.58-59.61,17.35-14.5,37.15-23.23,52.68-28.36,10.02-48.67,30.29-95.28,58.85-135.24,31.84-44.53,73.36-79.57,120.07-101.31,37.22-17.2,75.07-26.28,109.49-26.28,14.69,0,28.92,1.64,42.41,4.87,5.33-5.51,10.22-11.63,15.32-18.02,7.51-9.4,15.28-19.12,25.07-27.54,7.98-6.91,18.54-10.73,29.7-10.73,15.82,0,30.2,7.35,38.53,19.68,12.85,17.45,20.95,36.89,28.78,55.69,3.25,7.81,6.43,15.43,9.86,22.77,6.32-23.4,12.21-46.99,17.96-70.02,7.73-30.94,15.72-62.93,24.68-94.24,5.75-21.49,22.29-46.52,50.04-46.52,1.06,0,2.15.04,3.22.12,14.87.82,34.79,9.45,45.54,45.77,12.39,41.08,22.5,83.31,32.28,124.16,2.67,11.14,5.43,22.67,8.19,33.98.76,3.1,1.63,6.2,2.6,9.3,3.84-8.86,7.52-17.78,11.13-26.55,3.52-8.54,7.16-17.36,10.9-26.03,11.4-26.27,31.12-41.94,52.77-41.94,2.69,0,5.42.24,8.13.73,22.57,3.56,35.47,19.62,46.86,33.79,3.87,4.81,7.57,9.42,11.44,13.32,4.63-.31,9.3-.69,13.86-1.06,11.28-.91,22.95-1.86,34.68-1.86,9.85,0,18.67.67,26.98,2.04,41.92,6.97,81.74,24.01,118.37,50.63,33.69,24.49,63.42,56.6,85.99,92.89,24.01,35.21,36.69,76.09,47.18,115.47,26.82,9.17,57.39,23.78,72.69,53.42,15.84,25.85,15,54,14.19,81.23-.25,8.46-.49,16.45-.23,24.27,0,.26,0,.53,0,.79-.22,7.31,0,14.72.24,22.58.73,24.49,1.48,49.82-11.18,73.81-15.26,34.54-50.89,52.11-81.89,57.7-18.92,55.56-50.86,107.6-95,154.79-41.71,44.59-94.46,84.3-152.56,114.84-.05.03-.1.05-.16.08-92.54,47.01-199.56,71.86-309.47,71.86ZM660.3,1215.75c31.13,3.97,62.57,5.99,93.44,5.99,115.84,0,222.72-27.94,309.09-80.8,39.21-23.76,73.45-51.44,101.82-82.27,30.71-33.38,53.75-69.73,68.47-108.01.08-.22.17-.43.27-.64,22.53-50.05,21.76-106.74,21.02-161.57-.11-7.76-.21-15.79-.25-23.65-.24-11.44-.12-23.04,0-34.25.35-34.32.68-66.74-8.17-98.23-.04-.16-.09-.32-.12-.48-9.97-41.82-33.87-83.63-69.12-120.91-.04-.05-.09-.09-.13-.14-33.12-36.11-75.58-59.53-119.56-65.94-.22-.03-.45-.07-.67-.12-3.04-.61-6.21-.91-9.7-.91-7.98,0-16.25,1.56-25.01,3.22-9.46,1.79-19.24,3.64-29.47,3.64-7.08,0-13.54-.88-19.76-2.69-.22-.06-.44-.13-.65-.21-19.94-7-32.74-22.21-43.68-36.71-5.4,11.08-10.59,22.29-15.67,33.27-5.61,12.13-11.4,24.67-17.45,36.92-10.99,22.55-29.07,36.05-48.33,36.05-2.69,0-5.42-.26-8.11-.78-.06-.01-.12-.02-.18-.04-27.57-5.71-42.73-31.75-47.75-54.29-5.25-20.46-10.23-41.31-15.05-61.46-5.63-23.56-11.38-47.59-17.66-71.5-1.03,3.63-2.07,7.23-3.11,10.81-1.59,5.5-3.24,11.18-4.76,16.75-9.56,39.49-18.49,75.33-27.3,109.54-6.66,25.73-20.28,41.95-39.4,46.93-4.15,1.16-8.42,1.75-12.71,1.75-24.3,0-43.9-18.18-52.59-36.25-6.68-13.18-12.71-26.74-18.54-39.86-4.67-10.5-9.44-21.24-14.54-31.75-1.48,1.82-2.98,3.69-4.49,5.59-11.52,14.45-24.57,30.83-45.92,37.65-5.6,1.9-11.36,2.82-17.6,2.82-10.28,0-19.8-2.52-29.01-4.96-8.09-2.14-15.73-4.17-22.91-4.17-2.11,0-4.06.17-5.97.52-.35.06-.7.11-1.05.15-57.93,5.69-104.97,42.37-134.24,72.16-48.15,50.44-74.72,118.07-72.9,185.57,0,.05,0,.09,0,.14.38,23.74.33,47.82.27,71.11-.07,28.73-.13,58.42.62,87.53,4.94,76.72,41.8,153.31,101.15,210.16.09.09.19.18.28.27,38.25,38.99,85.52,71.38,140.5,96.26,50.79,22.99,106.83,39.07,166.58,47.79Z"/>
    <path class="st1" d="M758.02,224.29c.8,0,1.61.03,2.43.09,20,1.03,29.54,20.62,34.34,36.84,15.68,51.98,27.46,104.9,40.31,157.55,3.2,13.02,8,25.63,14.08,37.62,12.8-25.73,22.82-52.6,34.18-78.9,7.18-16.54,21.58-34.4,41.29-34.4,1.97,0,3.99.18,6.06.55,26.72,4.13,37.38,31.83,55.78,47.59,17.67-.95,35.41-3.21,53.13-3.21,8.32,0,16.64.5,24.94,1.87,82.92,13.8,153.26,69.29,195.92,138.02,24.42,35.71,36.53,77.3,47.3,118.38,28.26,9.04,58.28,22.53,72.15,49.81,18.77,30.23,11.25,66.45,12.37,99.78-.91,30.49,5.44,62.99-9.71,91.31-13.38,30.8-47.19,48.06-80.09,51.93-37.59,118.23-133.53,211.76-243.91,269.79-93.48,47.49-198.58,70.51-303.81,70.51-75.57,0-151.19-11.87-222.67-35.06-80.15-29.14-157.42-70.38-217.14-130.73-51.83-46.14-86.92-107.22-109.48-171.24-21.49-5.37-44.47-9.77-61.38-24.86-24.74-19.02-33.22-51.16-32.16-80.56.64-36.22-.75-72.55.43-108.77,5.33-42.32,46.61-68.62,85.69-79.78,17.92-97.66,79.45-191.24,173.36-234.96,32.08-14.82,68.32-25.11,104.21-25.11,15.54,0,31.01,1.93,46.06,6.25,16.69-15.19,27.78-35.24,44.9-49.97,6.02-5.21,13.78-7.71,21.55-7.71,11.02,0,22.09,5.01,28.31,14.37,23.36,31.57,30.4,71.46,52.79,103.66,18.61-64.02,32.42-129.23,50.77-193.31,4.62-17.36,17.49-37.35,37.99-37.35M670.65,502.52c-17.87,0-34.02-13.87-41.38-29.28-14.66-28.89-25.92-59.32-41.38-87.84-18.93,17.72-30.66,44.7-57.22,53.12-4.6,1.57-9.16,2.2-13.7,2.2-17.36,0-34.35-9.13-51.91-9.13-2.73,0-5.48.22-8.24.73-55.78,5.48-104.25,37.46-142.01,75.91-49.81,52.14-78.33,123.45-76.42,194.6.85,53.02-.48,106.03.91,159,5.23,82.26,44.74,160.91,105,218.63,82.23,83.81,197.73,130.68,314.3,147.68,31.39,4.01,63.25,6.11,95.15,6.11,110.61,0,221.7-25.16,315.62-82.63,76.73-46.51,143.44-113.27,175.44-196.46,26.98-59.94,22.18-126.7,21.86-190.52-.96-45.21,3.79-91.46-8.64-135.69-11.36-47.64-38.34-90.79-72.2-126.6-32.79-35.76-77.69-62.68-126.97-69.86-4.07-.82-8.12-1.16-12.17-1.16-18.28,0-36.33,6.86-54.48,6.86-5.41,0-10.83-.61-16.27-2.19-23.25-8.16-35.57-30.54-49.97-48.42-15.14,28.89-27.78,58.96-42.18,88.15-6.92,14.2-20.04,29.08-37.12,29.08-1.87,0-3.79-.18-5.75-.56-21.44-4.44-33.86-25.58-38.13-44.96-15.52-60.51-28.1-121.79-46.45-181.58-2.99,25.99-11.52,50.85-18.4,75.96-8.85,36.58-17.92,73.12-27.3,109.55-4.11,15.86-12.85,33.43-30.56,37.98-3.17.9-6.33,1.32-9.44,1.32M758.02,199.29h0c-16.62,0-31.71,7.12-43.65,20.58-8.33,9.39-14.87,21.84-18.43,35.11-9.01,31.48-17.01,63.54-24.76,94.55-2.86,11.44-5.75,23.01-8.71,34.63-6.82-15.97-14.43-32.11-25.56-47.27-10.68-15.64-28.85-24.96-48.74-24.96-14.17,0-27.64,4.9-37.92,13.81-10.64,9.17-18.76,19.33-26.62,29.16-3.36,4.2-6.62,8.28-9.93,12.08-12.24-2.41-24.98-3.63-38.04-3.63-36.21,0-75.87,9.48-114.7,27.42-.02.01-.04.02-.07.03-24.94,11.61-48.44,26.77-69.87,45.08-20.42,17.44-38.96,37.73-55.09,60.3-28.21,39.46-48.6,85.18-59.42,133.03-15.42,5.71-33.63,14.61-49.96,28.25-22.26,18.6-35.73,41.99-38.96,67.64-.1.77-.16,1.54-.18,2.32-.67,20.71-.52,41.55-.38,61.7.11,15.54.22,31.6-.05,47.23-1.47,42.24,13.53,78.79,41.19,100.48,17.75,15.52,38.93,21.82,58.43,26.69,26.28,69.22,63.64,125.79,111.16,168.29,29.63,29.84,65.13,56.92,105.52,80.51,35.6,20.79,76.07,39.49,120.3,55.57.27.1.55.19.83.28,74.19,24.08,151.7,36.28,230.39,36.28,111.87,0,220.84-25.32,315.13-73.22.1-.05.21-.11.31-.16,29.14-15.32,56.98-32.86,82.73-52.12,26.75-20,51.35-41.96,73.14-65.25,43.55-46.56,75.57-97.79,95.31-152.47,14.91-3.41,29.02-9.03,41.44-16.58,19.28-11.71,33.87-27.78,42.27-46.53,13.98-26.79,13.15-54.84,12.41-79.63-.23-7.66-.44-14.9-.24-21.83.02-.53.01-1.06,0-1.58-.25-7.43-.02-15.23.23-23.48.82-27.59,1.75-58.82-15.79-87.74-8.4-16.07-21.62-29.76-39.3-40.71-9.68-6-20.67-11.23-33.92-16.13-10.44-38.38-23.38-77.9-47.07-112.72-23.4-37.56-54.2-70.8-89.11-96.18-38.21-27.77-79.82-45.56-123.65-52.85-9.01-1.49-18.5-2.21-29.04-2.21-12.23,0-24.16.96-35.69,1.9-2.63.21-5.21.42-7.75.62-2.22-2.55-4.48-5.36-6.8-8.25-12.16-15.13-27.27-33.95-54.53-38.29-3.39-.6-6.82-.9-10.2-.9-15.39,0-30.06,6.14-42.45,17.77-11.19,10.5-18.02,23.02-21.77,31.68-2.6,6.03-5.14,12.08-7.61,18.06-.53-2.23-1.07-4.45-1.59-6.66-9.82-41.01-19.98-83.42-32.48-124.9-3.85-13-9.13-23.86-15.68-32.28-10.65-13.69-24.83-21.41-41.02-22.33-1.34-.09-2.69-.14-4.01-.14h0ZM686.63,525.33c23.37-6.14,40.49-25.96,48.22-55.85,7.38-28.65,14.84-58.4,22.67-90.47,2,8.25,3.96,16.46,5.91,24.62,4.82,20.15,9.79,40.97,15.05,61.48,5.92,26.31,24.05,56.71,57.37,63.62.12.02.24.05.36.07,3.47.67,7,1.01,10.47,1.01,13.89,0,27.32-5.33,38.83-15.4,10.42-9.11,17.02-20.06,20.73-27.67,6.1-12.38,11.93-24.97,17.56-37.16,2.35-5.09,4.73-10.23,7.14-15.37,9.51,10.34,21.2,19.92,36.72,25.37.43.15.87.29,1.3.42,7.37,2.14,14.97,3.18,23.25,3.18,11.41,0,22.24-2.05,31.8-3.86,8.16-1.54,15.88-3,22.68-3,2.65,0,5.02.22,7.23.66.44.09.89.17,1.33.23,20.81,3.03,41.34,10.19,61,21.26,18.89,10.64,36.1,24.35,51.15,40.76.09.09.17.19.26.28,33.75,35.69,56.59,75.53,66.05,115.22.08.32.16.64.25.96,8.36,29.76,8.04,61.32,7.7,94.72-.11,11.28-.23,22.94,0,34.53.04,7.89.15,15.9.25,23.66.37,27.27.75,55.46-1.79,82.2-2.74,28.82-8.67,53.06-18.13,74.08-.19.42-.37.85-.54,1.29-14.16,36.81-36.37,71.82-66.01,104.04-27.57,29.97-60.9,56.89-99.06,80.02-.03.02-.06.04-.09.06-84.4,51.65-189.03,78.96-302.57,78.96-30.32,0-61.18-1.98-91.75-5.88-58.54-8.56-113.42-24.3-163.11-46.79-53.57-24.25-99.57-55.75-136.73-93.63-.18-.18-.37-.37-.55-.55-28.24-27.05-51.1-58.34-67.94-92.99-17.07-35.12-26.95-71.7-29.37-108.72-.75-28.85-.68-58.38-.61-86.93.05-23.34.11-47.48-.28-71.34,0-.09,0-.18,0-.27-.85-31.42,5.06-64.13,17.07-94.58,11.94-30.26,30.03-58.6,52.31-81.95,18.78-19.11,38.5-34.57,58.61-45.96,22.39-12.68,45.23-20.24,67.88-22.46.7-.07,1.4-.17,2.1-.3,1.15-.21,2.36-.32,3.7-.32,5.55,0,12.43,1.82,19.71,3.75,9.51,2.52,20.3,5.38,32.21,5.38,7.48,0,14.72-1.16,21.51-3.45,19.57-6.28,32.96-19.18,43.62-31.71,1.99,4.41,3.98,8.89,6,13.43,5.87,13.23,11.95,26.9,18.75,40.33,10.42,21.56,34.12,43.21,63.8,43.21,5.39,0,10.76-.74,15.98-2.19h0Z"/>
  </g>
  <path class="st0" d="M690.28,1058.54c123.96,21.25,183.28-50.47,183.28-50.47"/>
</svg>