<?xml version="1.0" encoding="UTF-8"?>
<svg id="Layer_1" xmlns="http://www.w3.org/2000/svg" version="1.1" viewBox="38 38 1428 1428">
  <defs>
    <style>
      .body  { fill: #d94b0a; }
      .white { fill: white; }
      .smile { fill: none; stroke: white; stroke-linecap: round; stroke-linejoin: round; stroke-width: 100px; }
    </style>
  </defs>
  <!-- Silhouette pleine orange (contour extérieur uniquement) -->
  <path class="body" d="M758.02,224.29c.8,0,1.61.03,2.43.09,20,1.03,29.54,20.62,34.34,36.84,15.68,51.98,27.46,104.9,40.31,157.55,3.2,13.02,8,25.63,14.08,37.62,12.8-25.73,22.82-52.6,34.18-78.9,7.18-16.54,21.58-34.4,41.29-34.4,1.97,0,3.99.18,6.06.55,26.72,4.13,37.38,31.83,55.78,47.59,17.67-.95,35.41-3.21,53.13-3.21,8.32,0,16.64.5,24.94,1.87,82.92,13.8,153.26,69.29,195.92,138.02,24.42,35.71,36.53,77.3,47.3,118.38,28.26,9.04,58.28,22.53,72.15,49.81,18.77,30.23,11.25,66.45,12.37,99.78-.91,30.49,5.44,62.99-9.71,91.31-13.38,30.8-47.19,48.06-80.09,51.93-37.59,118.23-133.53,211.76-243.91,269.79-93.48,47.49-198.58,70.51-303.81,70.51-75.57,0-151.19-11.87-222.67-35.06-80.15-29.14-157.42-70.38-217.14-130.73-51.83-46.14-86.92-107.22-109.48-171.24-21.49-5.37-44.47-9.77-61.38-24.86-24.74-19.02-33.22-51.16-32.16-80.56.64-36.22-.75-72.55.43-108.77,5.33-42.32,46.61-68.62,85.69-79.78,17.92-97.66,79.45-191.24,173.36-234.96,32.08-14.82,68.32-25.11,104.21-25.11,15.54,0,31.01,1.93,46.06,6.25,16.69-15.19,27.78-35.24,44.9-49.97,6.02-5.21,13.78-7.71,21.55-7.71,11.02,0,22.09,5.01,28.31,14.37,23.36,31.57,30.4,71.46,52.79,103.66,18.61-64.02,32.42-129.23,50.77-193.31,4.62-17.36,17.49-37.35,37.99-37.35Z"/>
  <!-- Œil gauche blanc -->
  <path class="white" d="M554.2,859.24c-10.3,0-20.31-1.95-29.78-5.81-43.64-15.54-73.78-66.33-70.31-118.44-.05-47.6,27.27-92.61,66.6-109.66,10.18-4.79,20.95-7.22,32.01-7.22,26.6,0,53.43,14.16,73.61,38.85,24.33,29.77,34.51,69.19,27.28,105.55-3.36,26.45-15.54,50.92-34.33,68.95-18.66,17.91-41.78,27.77-65.09,27.77Z"/>
  <!-- Œil droit blanc -->
  <path class="white" d="M954.38,856.1c-11.57,0-22.78-2.6-33.34-7.73-24.34-8.78-44.92-31.04-56.55-61.22-11.1-28.82-13.07-61.83-5.43-90.65,8.55-41.2,37.88-74.29,74.87-84.46,7.42-2.4,15.09-3.62,22.8-3.62,23.15,0,46.12,10.84,64.68,30.54,23.91,25.36,36.95,61.91,34.92,97.84-.29,30.99-11.27,60.65-30.93,83.55-19.51,22.72-45.4,35.75-71.03,35.75Z"/>
  <!-- Sourire blanc -->
  <path class="smile" d="M690.28,1058.54c123.96,21.25,183.28-50.47,183.28-50.47"/>
</svg>
